<svg width="18" height="14" viewBox="0 0 18 14" fill="none" xmlns="http://www.w3.org/2000/svg">
<path d="M16.476 3.66797C16.476 3.66797 13.125 7.83464 9 7.83464C4.875 7.83464 1.52399 3.66797 1.52399 3.66797M5.5 12.8346H12.5C13.9001 12.8346 14.6002 12.8346 15.135 12.5622C15.6054 12.3225 15.9878 11.94 16.2275 11.4696C16.5 10.9348 16.5 10.2348 16.5 8.83464V5.16797C16.5 3.76784 16.5 3.06777 16.2275 2.53299C15.9878 2.06259 15.6054 1.68014 15.135 1.44045C14.6002 1.16797 13.9001 1.16797 12.5 1.16797H5.5C4.09987 1.16797 3.3998 1.16797 2.86502 1.44045C2.39462 1.68014 2.01217 2.06259 1.77248 2.53299C1.5 3.06777 1.5 3.76784 1.5 5.16797V8.83464C1.5 10.2348 1.5 10.9348 1.77248 11.4696C2.01217 11.94 2.39462 12.3225 2.86502 12.5622C3.3998 12.8346 4.09987 12.8346 5.5 12.8346Z" stroke="#98A2B3" stroke-width="2" stroke-linecap="round" stroke-linejoin="round"/>
</svg>
