<svg width="12" height="8" viewBox="0 0 12 8" fill="none" xmlns="http://www.w3.org/2000/svg">
<mask id="path-1-inside-1_841_36" fill="white">
<path d="M1.41 0.294922L6 4.87492L10.59 0.294922L12 1.70492L6 7.70492L0 1.70492L1.41 0.294922Z"/>
</mask>
<path d="M1.41 0.294922L6 4.87492L10.59 0.294922L12 1.70492L6 7.70492L0 1.70492L1.41 0.294922Z" fill="#757575"/>
<path d="M1.41 0.294922L3.52901 -1.82871L1.40769 -3.94541L-0.711321 -1.8264L1.41 0.294922ZM6 4.87492L3.88099 6.99855L6 9.11294L8.11901 6.99855L6 4.87492ZM10.59 0.294922L12.7113 -1.8264L10.5923 -3.94541L8.47099 -1.82871L10.59 0.294922ZM12 1.70492L14.1213 3.82624L16.2426 1.70492L14.1213 -0.416399L12 1.70492ZM6 7.70492L3.87868 9.82624L6 11.9476L8.12132 9.82624L6 7.70492ZM0 1.70492L-2.12132 -0.416399L-4.24264 1.70492L-2.12132 3.82624L0 1.70492ZM-0.709006 2.41855L3.88099 6.99855L8.11901 2.75129L3.52901 -1.82871L-0.709006 2.41855ZM8.11901 6.99855L12.709 2.41855L8.47099 -1.82871L3.88099 2.75129L8.11901 6.99855ZM8.46868 2.41624L9.87868 3.82624L14.1213 -0.416399L12.7113 -1.8264L8.46868 2.41624ZM9.87868 -0.416399L3.87868 5.5836L8.12132 9.82624L14.1213 3.82624L9.87868 -0.416399ZM8.12132 5.5836L2.12132 -0.416399L-2.12132 3.82624L3.87868 9.82624L8.12132 5.5836ZM2.12132 3.82624L3.53132 2.41624L-0.711321 -1.8264L-2.12132 -0.416399L2.12132 3.82624Z" fill="black" mask="url(#path-1-inside-1_841_36)"/>
</svg>
