<svg width="22" height="22" viewBox="0 0 22 22" fill="none" xmlns="http://www.w3.org/2000/svg">
<path d="M14.7118 7.29179C14.6188 7.19806 14.5082 7.12367 14.3864 7.0729C14.2645 7.02213 14.1338 6.99599 14.0018 6.99599C13.8698 6.99599 13.7391 7.02213 13.6172 7.0729C13.4954 7.12367 13.3848 7.19806 13.2918 7.29179L11.0018 9.59179L8.71179 7.29179C8.52348 7.10348 8.26809 6.9977 8.00179 6.9977C7.73549 6.9977 7.48009 7.10348 7.29179 7.29179C7.10348 7.48009 6.9977 7.73549 6.9977 8.00179C6.9977 8.26809 7.10348 8.52348 7.29179 8.71179L9.59179 11.0018L7.29179 13.2918C7.19806 13.3848 7.12367 13.4954 7.0729 13.6172C7.02213 13.7391 6.99599 13.8698 6.99599 14.0018C6.99599 14.1338 7.02213 14.2645 7.0729 14.3864C7.12367 14.5082 7.19806 14.6188 7.29179 14.7118C7.38475 14.8055 7.49535 14.8799 7.61721 14.9307C7.73907 14.9814 7.86978 15.0076 8.00179 15.0076C8.1338 15.0076 8.26451 14.9814 8.38636 14.9307C8.50822 14.8799 8.61882 14.8055 8.71179 14.7118L11.0018 12.4118L13.2918 14.7118C13.3848 14.8055 13.4954 14.8799 13.6172 14.9307C13.7391 14.9814 13.8698 15.0076 14.0018 15.0076C14.1338 15.0076 14.2645 14.9814 14.3864 14.9307C14.5082 14.8799 14.6188 14.8055 14.7118 14.7118C14.8055 14.6188 14.8799 14.5082 14.9307 14.3864C14.9814 14.2645 15.0076 14.1338 15.0076 14.0018C15.0076 13.8698 14.9814 13.7391 14.9307 13.6172C14.8799 13.4954 14.8055 13.3848 14.7118 13.2918L12.4118 11.0018L14.7118 8.71179C14.8055 8.61882 14.8799 8.50822 14.9307 8.38636C14.9814 8.26451 15.0076 8.1338 15.0076 8.00179C15.0076 7.86978 14.9814 7.73907 14.9307 7.61721C14.8799 7.49535 14.8055 7.38475 14.7118 7.29179ZM18.0718 3.93179C17.1493 2.97669 16.0459 2.21486 14.8258 1.69077C13.6058 1.16668 12.2936 0.890822 10.9658 0.879284C9.63801 0.867746 8.32121 1.12076 7.09225 1.62357C5.86328 2.12638 4.74677 2.86891 3.80784 3.80784C2.86891 4.74677 2.12638 5.86328 1.62357 7.09225C1.12076 8.32121 0.867746 9.63801 0.879284 10.9658C0.890822 12.2936 1.16668 13.6058 1.69077 14.8258C2.21486 16.0459 2.97669 17.1493 3.93179 18.0718C4.85426 19.0269 5.9577 19.7887 7.17774 20.3128C8.39778 20.8369 9.70998 21.1128 11.0378 21.1243C12.3656 21.1358 13.6824 20.8828 14.9113 20.38C16.1403 19.8772 17.2568 19.1347 18.1957 18.1957C19.1347 17.2568 19.8772 16.1403 20.38 14.9113C20.8828 13.6824 21.1358 12.3656 21.1243 11.0378C21.1128 9.70998 20.8369 8.39778 20.3128 7.17774C19.7887 5.9577 19.0269 4.85426 18.0718 3.93179ZM16.6618 16.6618C15.3538 17.9712 13.6323 18.7866 11.7906 18.9691C9.94884 19.1516 8.10079 18.6898 6.56131 17.6626C5.02183 16.6353 3.88615 15.106 3.34776 13.3353C2.80938 11.5645 2.90159 9.66193 3.6087 7.95157C4.31581 6.24122 5.59406 4.82894 7.22568 3.95535C8.8573 3.08176 10.7413 2.80092 12.5568 3.16066C14.3723 3.5204 16.0068 4.49848 17.182 5.92825C18.3572 7.35802 19.0003 9.15103 19.0018 11.0018C19.0054 12.0531 18.8004 13.0946 18.3987 14.0662C17.9971 15.0377 17.4067 15.9199 16.6618 16.6618Z" fill="#98A2B3"/>
</svg>
