<svg width="17" height="16" viewBox="0 0 17 16" fill="none" xmlns="http://www.w3.org/2000/svg">
<path d="M8.83203 1.33398H3.9987C3.06528 1.33398 2.59857 1.33398 2.24205 1.51564C1.92844 1.67543 1.67348 1.9304 1.51369 2.244C1.33203 2.60052 1.33203 3.06723 1.33203 4.00065V12.0007C1.33203 12.9341 1.33203 13.4008 1.51369 13.7573C1.67348 14.0709 1.92844 14.3259 2.24205 14.4857C2.59857 14.6673 3.06528 14.6673 3.9987 14.6673H11.9987C12.9321 14.6673 13.3988 14.6673 13.7553 14.4857C14.069 14.3259 14.3239 14.0709 14.4837 13.7573C14.6654 13.4008 14.6654 12.9341 14.6654 12.0007V8.00065M6.76497 9.58068L7.86062 9.36415C8.45183 9.24732 8.74744 9.1889 9.0231 9.08129C9.26777 8.98577 9.5003 8.86167 9.71584 8.71156C9.95867 8.54245 10.1717 8.32938 10.5979 7.90325L14.8882 3.61288C15.461 3.04017 15.461 2.11162 14.8882 1.53891C14.3155 0.966197 13.387 0.966197 12.8143 1.53891L8.45057 5.90261C8.05126 6.30191 7.85161 6.50156 7.69036 6.72788C7.54721 6.9288 7.42681 7.14499 7.33137 7.37248C7.22386 7.62873 7.15924 7.90359 7.03001 8.4533L6.76497 9.58068Z" stroke="#F79009" stroke-width="2" stroke-linecap="round" stroke-linejoin="round"/>
</svg>
