<svg width="65" height="64" viewBox="0 0 65 64" fill="none" xmlns="http://www.w3.org/2000/svg">
<path d="M8.57649 26.6668L27.7666 39.511C29.4773 40.6515 30.3326 41.2217 31.2571 41.4433C32.0741 41.6391 32.9259 41.6391 33.7429 41.4433C34.6674 41.2217 35.5227 40.6515 37.2334 39.511L56.4235 26.6668M27.1667 25.7778L30.859 29.3333L39.1667 21.3333M25.6925 12.2752L14.4925 19.3089C12.3048 20.6828 11.211 21.3698 10.4176 22.2984C9.71539 23.1203 9.18704 24.076 8.86446 25.1078C8.5 26.2736 8.5 27.5653 8.5 30.1486V40.5333C8.5 45.0138 8.5 47.254 9.37195 48.9653C10.1389 50.4706 11.3628 51.6944 12.8681 52.4614C14.5794 53.3333 16.8196 53.3333 21.3 53.3333H43.7C48.1804 53.3333 50.4206 53.3333 52.1319 52.4614C53.6372 51.6944 54.8611 50.4706 55.6281 48.9653C56.5 47.254 56.5 45.0137 56.5 40.5333V30.1486C56.5 27.5653 56.5 26.2736 56.1355 25.1078C55.813 24.076 55.2846 23.1203 54.5824 22.2984C53.789 21.3698 52.6952 20.6828 50.5075 19.3089L39.3075 12.2752C36.8385 10.7247 35.6041 9.94939 34.2794 9.64719C33.1082 9.37997 31.8918 9.37997 30.7206 9.64719C29.3959 9.94939 28.1615 10.7247 25.6925 12.2752Z" stroke="#34A853" stroke-width="4.5" stroke-linecap="round" stroke-linejoin="round"/>
</svg>
